# xmcd CD database file
#
# Track frame offsets:
#	150
#	29334
#	71864
#	87876
#	114488
#	156090
#	195165
#	229035
#	255435
#	287954
#
# Disc length: 4127 seconds
#
# Revision: 0
# Processed by: cddbd v1.5.2PL0 Copyright (c) Steve Scherf et al.
# Submitted via: CDex 1.70beta2
#
DISCID=80101d0a
DTITLE=Danny Mixon Trio - Harlem in the Himalayas
DYEAR=2006
DGENRE=Jazz
TTITLE0=Intro
TTITLE1=Gentle Rain
TTITLE2=Sophisticated Lady
TTITLE3=Simone
TTITLE4=Autumn Leaves
TTITLE5=Don't Get Around Much Any More
TTITLE6=A Child is Born
TTITLE7=Estate
TTITLE8=Equinox
TTITLE9=All God's Children Got Rhythm
EXTD=YEAR: 2006
EXTT0=
EXTT1=
EXTT2=
EXTT3=
EXTT4=
EXTT5=
EXTT6=
EXTT7=
EXTT8=
EXTT9=
PLAYORDER=
